<?xml version="1.0" standalone="no"?><!DOCTYPE svg PUBLIC "-//W3C//DTD SVG 1.1//EN" "http://www.w3.org/Graphics/SVG/1.1/DTD/svg11.dtd"><svg t="1670068561166" class="icon" viewBox="0 0 1024 1024" version="1.1" xmlns="http://www.w3.org/2000/svg" p-id="14005" xmlns:xlink="http://www.w3.org/1999/xlink" width="200" height="200"><path d="M870.4 793.6H153.6C68.9024 793.6 0 724.6976 0 640V153.6C0 68.9024 68.9024 0 153.6 0h716.8c84.6976 0 153.6 68.9024 153.6 153.6v486.4c0 84.6976-68.9024 153.6-153.6 153.6zM153.6 51.2c-56.4608 0-102.4 45.9392-102.4 102.4v486.4c0 56.4608 45.9392 102.4 102.4 102.4h716.8c56.4608 0 102.4-45.9392 102.4-102.4V153.6c0-56.4608-45.9392-102.4-102.4-102.4H153.6zM793.6 1024H230.4a25.6 25.6 0 0 1 0-51.2h563.2a25.6 25.6 0 0 1 0 51.2zM633.6 908.8h-243.2a25.6 25.6 0 0 1 0-51.2h243.2a25.6 25.6 0 0 1 0 51.2z" fill="#ffffff" p-id="14006"></path><path d="M819.2 537.6H204.8a25.6 25.6 0 0 1 0-51.2h614.4a25.6 25.6 0 0 1 0 51.2z" fill="#ffffff" p-id="14007"></path><path d="M332.8 588.8a25.6 25.6 0 0 1-25.6-25.6v-102.4a25.6 25.6 0 0 1 51.2 0v102.4a25.6 25.6 0 0 1-25.6 25.6zM819.2 307.2H204.8a25.6 25.6 0 0 1 0-51.2h614.4a25.6 25.6 0 0 1 0 51.2z" fill="#ffffff" p-id="14008"></path><path d="M691.2 358.4a25.6 25.6 0 0 1-25.6-25.6v-102.4a25.6 25.6 0 0 1 51.2 0v102.4a25.6 25.6 0 0 1-25.6 25.6z" fill="#ffffff" p-id="14009"></path></svg>