<?xml version="1.0" standalone="no"?><!DOCTYPE svg PUBLIC "-//W3C//DTD SVG 1.1//EN" "http://www.w3.org/Graphics/SVG/1.1/DTD/svg11.dtd"><svg t="1669996486958" class="icon" viewBox="0 0 1024 1024" version="1.1" xmlns="http://www.w3.org/2000/svg" p-id="1393" xmlns:xlink="http://www.w3.org/1999/xlink" width="200" height="200"><path d="M508.1088 846.7456c-19.3024 0-38.4-6.5024-54.2208-19.2l-159.1808-127.3856a95.6416 95.6416 0 0 0-59.648-20.9408H170.3424c-47.9744 0-87.04-39.0656-87.04-87.04V415.1808c0-47.9744 39.0656-87.04 87.04-87.04H233.984a96.256 96.256 0 0 0 57.6-19.3024l164.1984-124.16c26.5216-20.0704 61.4912-23.296 91.2896-8.4992 29.7472 14.7968 48.2816 44.6976 48.2816 77.9264v505.5488c0 33.792-18.8928 63.8464-49.3568 78.4384-12.1856 5.8368-25.088 8.6528-37.888 8.6528zM170.3424 379.3408c-19.7632 0-35.84 16.0768-35.84 35.84v176.9984c0 19.7632 16.0768 35.84 35.84 35.84h64.7168c33.1776 0 65.7408 11.4176 91.648 32.1536l159.1808 127.3856c11.008 8.8064 25.1904 10.4448 37.9392 4.352s20.3264-18.176 20.3264-32.3072V254.1056c0-13.8752-7.424-25.9072-19.8656-32.1024-12.4416-6.1952-26.4704-4.864-37.5808 3.4816L322.4064 349.6448a147.52768 147.52768 0 0 1-88.4736 29.6448H170.3424z" fill="#AAAAAA" p-id="1394"></path><path d="M671.2832 669.1328c-14.1312 0-25.6-11.4688-25.6-25.6s11.4688-25.6 25.6-25.6c60.8256 0 110.336-49.5104 110.336-110.336s-49.5104-110.336-110.336-110.336c-14.1312 0-25.6-11.4688-25.6-25.6s11.4688-25.6 25.6-25.6c89.088 0 161.536 72.4992 161.536 161.536s-72.448 161.536-161.536 161.536z" fill="#FF6C6C" p-id="1395"></path><path d="M742.4512 791.8592a25.5488 25.5488 0 0 1-24.1152-17.0496 25.6 25.6 0 0 1 15.5648-32.6656c99.072-35.1232 165.6832-129.3824 165.6832-234.5472 0-108.2368-69.12-203.3664-172.032-236.6976a25.61024 25.61024 0 0 1-16.4864-32.256 25.61024 25.61024 0 0 1 32.256-16.4864c124.1088 40.192 207.4624 154.88 207.4624 285.44 0 126.8224-80.2816 240.4864-199.7824 282.8288-2.816 0.9728-5.7344 1.4336-8.5504 1.4336z" fill="#FF6C6C" p-id="1396"></path></svg>