<?xml version="1.0" standalone="no"?><!DOCTYPE svg PUBLIC "-//W3C//DTD SVG 1.1//EN" "http://www.w3.org/Graphics/SVG/1.1/DTD/svg11.dtd"><svg t="1669996482255" class="icon" viewBox="0 0 1024 1024" version="1.1" xmlns="http://www.w3.org/2000/svg" p-id="1224" xmlns:xlink="http://www.w3.org/1999/xlink" width="200" height="200"><path d="M571.7504 871.168c-20.224 0-40.192-6.8096-56.7808-20.1216L345.344 715.264a103.71072 103.71072 0 0 0-64.6656-22.6816H211.712c-50.2272 0-91.0848-40.8576-91.0848-91.0848V412.7744c0-50.2272 40.8576-91.0848 91.0848-91.0848H279.552c22.3744 0 44.544-7.424 62.3616-20.9408l175.0528-132.352c27.7504-20.992 64.3584-24.3712 95.5392-8.9088 31.1296 15.5136 50.5344 46.7456 50.5344 81.5616v538.8288c0 35.328-19.8144 66.816-51.6608 82.1248-12.6976 6.144-26.2144 9.1648-39.6288 9.1648zM211.712 372.8896c-22.016 0-39.8848 17.92-39.8848 39.8848v188.672c0 22.016 17.8688 39.8848 39.8848 39.8848h68.9664c35.0208 0 69.3248 12.032 96.6656 33.9456l169.6256 135.7824c12.2368 9.8304 28.0576 11.6224 42.1888 4.8128 14.1824-6.8096 22.6304-20.224 22.6304-35.9424V241.1008c0-15.4624-8.2944-28.8256-22.1184-35.6864-13.824-6.912-29.4912-5.4272-41.8304 3.8912L372.8384 341.6064a155.52 155.52 0 0 1-93.2352 31.2832H211.712z" fill="#AAAAAA" p-id="1225"></path><path d="M745.728 681.8304c-14.1312 0-25.6-11.4688-25.6-25.6s11.4688-25.6 25.6-25.6c65.792 0 119.296-53.504 119.296-119.296s-53.504-119.296-119.296-119.296c-14.1312 0-25.6-11.4688-25.6-25.6s11.4688-25.6 25.6-25.6c94.0032 0 170.496 76.4928 170.496 170.496s-76.4928 170.496-170.496 170.496z" fill="#FF6C6C" p-id="1226"></path></svg>