<?xml version="1.0" encoding="utf-8"?>
<!-- Generator: Adobe Illustrator 16.0.0, SVG Export Plug-In . SVG Version: 6.00 Build 0)  -->
<!DOCTYPE svg PUBLIC "-//W3C//DTD SVG 1.1//EN" "http://www.w3.org/Graphics/SVG/1.1/DTD/svg11.dtd">
<svg version="1.1" id="Layer_1" xmlns="http://www.w3.org/2000/svg" xmlns:xlink="http://www.w3.org/1999/xlink" x="0px" y="0px"
	 width="128px" height="128px" viewBox="0 0 128 128" enable-background="new 0 0 128 128" xml:space="preserve">
<g>
	<g>
		<g>
			<path fill="#37474F" d="M124.9,64.9c0,33.3-27,60.3-60.3,60.3c-33.3,0-60.3-27-60.3-60.3c0-33.4,27-60.4,60.3-60.4
				C97.9,4.5,124.9,31.5,124.9,64.9z"/>
			<path fill="#37474F" d="M64.6,126.7c-34.1,0-61.8-27.7-61.8-61.8C2.7,30.8,30.5,3,64.6,3s61.8,27.8,61.8,61.9
				C126.4,98.9,98.7,126.7,64.6,126.7z M64.6,6C32.1,6,5.7,32.4,5.7,64.9c0,32.4,26.4,58.8,58.8,58.8s58.8-26.4,58.8-58.8
				C123.4,32.4,97,6,64.6,6z"/>
		</g>
		<g>
			<path fill="#FFAB00" d="M91.9,64.9c0,15.1-12.2,27.3-27.3,27.3c-15.1,0-27.3-12.2-27.3-27.3c0-15.1,12.3-27.4,27.3-27.4
				C79.6,37.5,91.9,49.7,91.9,64.9z"/>
			<path fill="#37474F" d="M64.6,93.7c-15.9,0-28.8-12.9-28.8-28.8C35.8,49,48.7,36,64.6,36C80.5,36,93.4,49,93.4,64.9
				C93.4,80.8,80.5,93.7,64.6,93.7z M64.6,39c-14.2,0-25.8,11.6-25.8,25.9c0,14.2,11.6,25.8,25.8,25.8c14.2,0,25.8-11.6,25.8-25.8
				C90.4,50.6,78.8,39,64.6,39z"/>
		</g>
		<g>
			<g>
				<path fill="#B0BEC5" d="M19.6,60.3c-0.8,0-1.5-0.7-1.5-1.5c0-22.3,18.1-40.5,40.4-40.5c0.8,0,1.5,0.7,1.5,1.5s-0.7,1.5-1.5,1.5
					c-20.6,0-37.4,16.8-37.4,37.5C21.1,59.6,20.4,60.3,19.6,60.3z"/>
			</g>
			<g>
				<path fill="#B0BEC5" d="M28.6,60c-0.8,0-1.5-0.7-1.5-1.5c0-17.2,14-31.2,31.1-31.2c0.8,0,1.5,0.7,1.5,1.5s-0.7,1.5-1.5,1.5
					c-15.5,0-28.1,12.6-28.1,28.2C30.1,59.3,29.4,60,28.6,60z"/>
			</g>
		</g>
		<g>
			<g>
				<path fill="#B0BEC5" d="M70.2,109.6c-0.8,0-1.5-0.7-1.5-1.5s0.7-1.5,1.5-1.5c20.6,0,37.4-16.8,37.4-37.5c0-0.8,0.7-1.5,1.5-1.5
					s1.5,0.7,1.5,1.5C110.6,91.5,92.5,109.6,70.2,109.6z"/>
			</g>
			<g>
				<path fill="#B0BEC5" d="M70.5,100.6c-0.8,0-1.5-0.7-1.5-1.5s0.7-1.5,1.5-1.5C86,97.6,98.6,85,98.6,69.5c0-0.8,0.7-1.5,1.5-1.5
					s1.5,0.7,1.5,1.5C101.6,86.7,87.7,100.6,70.5,100.6z"/>
			</g>
		</g>
		<g>
			<path fill="#37474F" d="M78.8,64.9c0,7.9-6.4,14.3-14.3,14.3c-7.9,0-14.3-6.4-14.3-14.3c0-7.9,6.4-14.3,14.3-14.3
				C72.4,50.6,78.8,56.9,78.8,64.9z"/>
			<path fill="#37474F" d="M64.6,80.6c-8.7,0-15.8-7.1-15.8-15.8c0-8.7,7.1-15.8,15.8-15.8c8.7,0,15.8,7.1,15.8,15.8
				C80.3,73.6,73.3,80.6,64.6,80.6z M64.6,52.1c-7,0-12.8,5.7-12.8,12.8c0,7,5.7,12.8,12.8,12.8c7,0,12.8-5.7,12.8-12.8
				C77.3,57.8,71.6,52.1,64.6,52.1z"/>
		</g>
	</g>
	<g>
		<g>
			<path fill="#FFFFFF" d="M64.6,74.4c0.9,0,1.6,0.7,1.6,1.6c0,0.9-0.7,1.6-1.6,1.6c-0.9,0-1.6-0.7-1.6-1.6
				C63,75.1,63.7,74.4,64.6,74.4z"/>
			<path fill="#FFFFFF" d="M64.6,78.1L64.6,78.1L64.6,78.1c-1.2,0-2.1-0.9-2.1-2.1c0-0.5,0.2-1,0.6-1.4c0.4-0.4,0.9-0.6,1.5-0.6
				c1.2,0,2.1,0.9,2.1,2.1C66.7,77.1,65.7,78.1,64.6,78.1z M64.6,74.9c-0.3,0-0.6,0.1-0.8,0.3c-0.2,0.2-0.3,0.5-0.3,0.7
				c0,0.6,0.5,1.1,1.1,1.1l0,0c0.6,0,1.1-0.5,1.1-1.1C65.7,75.4,65.2,74.9,64.6,74.9z"/>
		</g>
		<g>
			<path fill="#FFFFFF" d="M64.6,63.3c0.9,0,1.6,0.7,1.6,1.6s-0.7,1.6-1.6,1.6c-0.9,0-1.6-0.7-1.6-1.6C63,64,63.7,63.3,64.6,63.3z"
				/>
			<path fill="#FFFFFF" d="M64.6,66.9L64.6,66.9c-1.2,0-2.1-1-2.1-2.1c0-1.1,1-2,2.1-2c0,0,0,0,0,0c1.2,0,2.1,0.9,2.1,2.1
				C66.7,66,65.8,66.9,64.6,66.9L64.6,66.9z M64.6,63.8c-0.6,0-1.1,0.5-1.1,1.1c0,0.6,0.5,1.1,1.1,1.1c0.6,0,1.1-0.5,1.1-1.1
				C65.7,64.2,65.2,63.8,64.6,63.8z"/>
		</g>
		<g>
			<path fill="#FFFFFF" d="M64.6,52.1c0.9,0,1.6,0.7,1.6,1.6c0,0.9-0.7,1.6-1.6,1.6c-0.9,0-1.6-0.7-1.6-1.6
				C63,52.8,63.7,52.1,64.6,52.1z"/>
			<path fill="#FFFFFF" d="M64.6,55.8c-0.6,0-1.1-0.2-1.5-0.6c-0.4-0.4-0.6-0.9-0.6-1.5c0-0.5,0.2-1,0.6-1.4
				c0.4-0.4,0.9-0.6,1.5-0.6c1.2,0,2.1,0.9,2.1,2.1C66.7,54.8,65.7,55.8,64.6,55.8z M64.6,52.6c-0.3,0-0.6,0.1-0.8,0.3
				c-0.2,0.2-0.3,0.5-0.3,0.7c0,0.3,0.1,0.6,0.3,0.8c0.2,0.2,0.5,0.3,0.8,0.3c0.6,0,1.1-0.5,1.1-1.1C65.7,53.1,65.2,52.6,64.6,52.6z
				"/>
		</g>
	</g>
</g>
</svg>
