<svg data-v-2cb57da0="" version="1.0" xmlns="http://www.w3.org/2000/svg" xmlns:xlink="http://www.w3.org/1999/xlink" width="100%" height="100%" viewBox="0 0 340.000000 250.000000" preserveAspectRatio="xMidYMid meet" color-interpolation-filters="sRGB" style="margin: auto;"><rect data-v-2cb57da0="" x="0" y="0" width="100%" height="100%" fill="#fff" fill-opacity="1" class="background"></rect>  <g data-v-2cb57da0="" fill="#333" class="icon-text-wrapper icon-svg-group iconsvg" transform="translate(82.07500457763672,65.6245002746582)"><g class="iconsvg-imagesvg" transform="translate(57.92499542236328,0)"><g><rect fill="#333" fill-opacity="0" stroke-width="2" x="0" y="0" width="60" height="59.06848991405534" class="image-rect"></rect> <svg x="0" y="0" width="60" height="59.06848991405534" filtersec="colorsb9121827496" class="image-svg-svg primary" style="overflow: visible;"><svg xmlns="http://www.w3.org/2000/svg" viewBox="0.4385022521018982 -0.000009216904800268821 101.5615005493164 99.98497772216797"><path d="M69.3 59.41l-9.89 9.89L51 77.73 30.46 98.26A6 6 0 0 1 22 89.83L42.56 69.3 51 60.88l9.9-9.9zM102 24.28a6 6 0 0 1-1.75 4.21L77.72 51l-8.42-8.44 22.5-22.5a6 6 0 0 1 10.2 4.22z" fill="#0059cc"></path><path d="M83.64 6a5.94 5.94 0 0 1-1.74 4.21L41.08 51l-8.42-8.42 9.9-9.89L51 24.24 73.48 1.75A6 6 0 0 1 83.64 6zM32.66 59.41L12.13 79.93a6 6 0 0 1-8.42-8.42L24.24 51z" fill="#00dac7"></path><path d="M51 24.24l-8.42 8.43-22.5-22.5A6 6 0 0 1 24.28 0a5.89 5.89 0 0 1 4.2 1.75zM98.25 79.93a5.94 5.94 0 0 1-8.42 0L51 41.09l8.42-8.42 9.9 9.89 8.4 8.44 20.53 20.51a6 6 0 0 1 0 8.42z" fill="#00baec"></path><path d="M51 60.88l-8.44 8.42L1.74 28.49a6 6 0 0 1 8.43-8.43l22.49 22.5L41.08 51zM79.93 98.26a6 6 0 0 1-8.42 0L51 77.73l8.42-8.43 20.51 20.53a6 6 0 0 1 0 8.43z" fill="#00abd8"></path></svg></svg> <!----></g></g> <g transform="translate(0,66.0684928894043)"><g data-gra="path-name" fill-rule="" class="tp-name iconsvg-namesvg" transform="translate(0,0)"><g transform="scale(1)"><g><path d="M2.63-20.16Q2.18-20.45 2.18-20.94L2.18-20.94Q2.18-21.35 2.35-21.56L2.35-21.56Q2.67-22.05 3.17-22.05L3.17-22.05Q3.46-22.05 3.79-21.85L3.79-21.85 4.03-21.68Q6.95-26.54 8.89-31.39L8.89-31.39Q9.17-31.93 9.75-31.93L9.75-31.93Q10.04-31.93 10.29-31.8L10.29-31.8Q10.86-31.47 10.86-30.86L10.86-30.86Q10.86-30.77 10.78-30.45L10.78-30.45Q8.76-25.63 5.76-20.61L5.76-20.61 9.26-18.43Q11.11-21.64 12.8-25.14L12.8-25.14Q13.04-25.67 13.66-25.67L13.66-25.67Q13.78-25.67 13.95-25.61 14.11-25.55 14.19-25.55L14.19-25.55Q14.4-25.43 14.54-25.16 14.69-24.89 14.69-24.6L14.69-24.6Q14.69-24.32 14.61-24.15L14.61-24.15Q11.27-17.2 6.83-10.53L6.83-10.53 13.12-11.4Q13.62-11.44 13.95-11.11 14.28-10.78 14.28-10.41L14.28-10.41Q14.28-10.04 14.05-9.71 13.82-9.38 13.37-9.34L13.37-9.34 4.28-8.06Q3.74-8.02 3.44-8.35 3.13-8.68 3.13-9.09L3.13-9.09Q3.13-9.46 3.35-9.77 3.58-10.08 3.99-10.12L3.99-10.12 4.16-10.16Q6.05-12.96 8.23-16.62L8.23-16.62 2.63-20.16ZM33.16-4.81Q33.57-4.81 33.86-4.51 34.15-4.2 34.11-3.58L34.11-3.58Q33.94-1.69 33.16 0.51 32.38 2.72 30.61 2.72L30.61 2.72Q28.02 2.72 26.74-1.73L26.74-1.73Q26.13-3.87 25.73-6.93 25.34-10 25.06-14.4L25.06-14.4 18.1-14.4 18.1-0.08 22.67-2.72Q22.96-2.88 23.29-2.88L23.29-2.88Q23.82-2.88 24.07-2.43L24.07-2.43Q24.27-2.1 24.27-1.77L24.27-1.77Q24.27-1.32 23.78-1.03L23.78-1.03 16.79 3Q16.5 3.17 16.25 3.17L16.25 3.17Q15.96 3.17 15.72 3.02 15.47 2.88 15.39 2.63L15.39 2.63Q15.26 2.39 15.26 2.1L15.26 2.1Q15.26 1.6 15.8 1.28L15.8 1.28 16.05 1.15 16.05-23.16Q16.05-28.1 21.93-28.96L21.93-28.96Q25.88-29.54 31.47-30.69L31.47-30.69Q32.01-30.77 32.36-30.47 32.71-30.16 32.71-29.75L32.71-29.75Q32.71-29.42 32.5-29.13 32.3-28.84 31.89-28.72L31.89-28.72Q28.76-28.06 26.66-27.65L26.66-27.65Q26.74-20.2 26.95-16.46L26.95-16.46 33-16.46Q33.49-16.46 33.76-16.13 34.03-15.8 34.03-15.43L34.03-15.43Q34.03-15.06 33.76-14.73 33.49-14.4 33-14.4L33-14.4 27.07-14.4Q27.28-10.16 27.5-7.96 27.73-5.76 28.35-3L28.35-3Q28.68-1.56 29.23-0.51 29.79 0.53 30.53 0.53L30.53 0.53Q31.31 0.53 31.72-1.07 32.13-2.67 32.21-3.87L32.21-3.87Q32.26-4.28 32.54-4.55 32.83-4.81 33.16-4.81L33.16-4.81ZM18.1-22.96L18.1-16.46 24.93-16.46Q24.69-20.98 24.6-27.28L24.6-27.28 22.34-26.91Q19.83-26.5 18.97-25.53 18.1-24.56 18.1-22.96L18.1-22.96ZM13.58-3.62Q14.07-3.74 14.4-3.48 14.73-3.21 14.81-2.84L14.81-2.84Q14.89-2.43 14.71-2.08 14.52-1.73 14.03-1.6L14.03-1.6 3.09 0.7Q2.51 0.82 2.18 0.49 1.85 0.16 1.85-0.29L1.85-0.29Q1.85-0.66 2.04-0.95 2.22-1.23 2.63-1.32L2.63-1.32 13.58-3.62ZM49.62-27.48Q49.12-27.48 48.86-27.81 48.59-28.14 48.59-28.51L48.59-28.51Q48.59-28.88 48.86-29.21 49.12-29.54 49.62-29.54L49.62-29.54 57.44-29.54 57.44-32.46Q57.44-32.96 57.76-33.22 58.09-33.49 58.46-33.49L58.46-33.49Q58.83-33.49 59.16-33.22 59.49-32.96 59.49-32.46L59.49-32.46 59.49-29.54 68.13-29.54Q68.63-29.54 68.89-29.21 69.16-28.88 69.16-28.51L69.16-28.51Q69.16-28.14 68.89-27.81 68.63-27.48 68.13-27.48L68.13-27.48 49.62-27.48ZM48.22-6.17Q48.3-5.92 48.3-5.76L48.3-5.76Q48.3-5.02 47.64-4.81L47.64-4.81 39-1.69Q38.88-1.65 38.67-1.65L38.67-1.65Q38.35-1.65 38.06-1.83 37.77-2.02 37.69-2.26L37.69-2.26Q37.6-2.51 37.6-2.63L37.6-2.63Q37.6-2.96 37.79-3.25 37.97-3.54 38.35-3.66L38.35-3.66 41.97-4.98 41.97-20 39.04-20Q38.55-20 38.28-20.32 38.02-20.65 38.02-21.02L38.02-21.02Q38.02-21.39 38.28-21.72 38.55-22.05 39.04-22.05L39.04-22.05 41.97-22.05 41.97-31.97Q41.97-32.46 42.29-32.73 42.62-33 42.99-33L42.99-33Q43.36-33 43.69-32.73 44.02-32.46 44.02-31.97L44.02-31.97 44.02-22.05 46.57-22.05Q47.07-22.05 47.33-21.72 47.6-21.39 47.6-21.02L47.6-21.02Q47.6-20.65 47.33-20.32 47.07-20 46.57-20L46.57-20 44.02-20 44.02-5.72 46.9-6.79Q47.15-6.87 47.27-6.87L47.27-6.87Q47.6-6.87 47.85-6.64 48.1-6.42 48.22-6.17L48.22-6.17ZM49.37-20.57Q48.88-20.57 48.61-20.9 48.34-21.23 48.34-21.6L48.34-21.6Q48.34-21.97 48.61-22.3 48.88-22.63 49.37-22.63L49.37-22.63 54.56-22.63 54.51-22.71 53.03-25.43Q52.91-25.76 52.91-25.96L52.91-25.96Q52.91-26.54 53.4-26.83L53.4-26.83Q53.73-26.99 53.98-26.99L53.98-26.99Q54.47-26.99 54.84-26.45L54.84-26.45 56.32-23.74Q56.49-23.45 56.49-23.2L56.49-23.2Q56.49-22.92 56.28-22.63L56.28-22.63 60.6-22.63 60.6-22.67 62.5-26.33Q62.66-26.58 62.95-26.74 63.24-26.91 63.52-26.91L63.52-26.91Q63.89-26.91 64.18-26.62 64.47-26.33 64.47-25.92L64.47-25.92Q64.47-25.67 64.35-25.43L64.35-25.43 62.91-22.63 69.24-22.63Q69.74-22.63 70-22.3 70.27-21.97 70.27-21.6L70.27-21.6Q70.27-21.23 70-20.9 69.74-20.57 69.24-20.57L69.24-20.57 49.37-20.57ZM69.37-2.72Q69.74-2.72 70.05-2.45 70.35-2.18 70.35-1.77L70.35-1.77Q70.35-1.44 70.27-1.03 70.19-0.62 70.15-0.45L70.15-0.45Q69.57 2.51 67.15 2.96L67.15 2.96Q65.99 3.21 65.13 3.21L65.13 3.21Q64.27 3.21 63.2 2.96L63.2 2.96Q61.59 2.59 60.85 1.3 60.11 0 60.11-2.39L60.11-2.39 60.11-5.68 55.91-5.68Q55.79-3.25 54.93-1.56 54.06 0.12 52.21 1.4 50.36 2.67 47.15 3.83L47.15 3.83Q46.82 3.91 46.7 3.91L46.7 3.91Q46.08 3.91 45.79 3.25L45.79 3.25Q45.71 3 45.71 2.84L45.71 2.84Q45.71 2.26 46.33 1.97L46.33 1.97Q49.62 0.58 51.12-0.33 52.62-1.23 53.24-2.47 53.86-3.7 53.94-5.88L53.94-5.88Q51.72-6.42 50.71-7.96 49.7-9.5 49.7-11.48L49.7-11.48 49.7-11.97Q49.7-14.36 51.18-16.07 52.66-17.77 55.87-17.77L55.87-17.77 60.85-17.77Q64.06-17.77 65.54-16.07 67.02-14.36 67.02-11.97L67.02-11.97 67.02-11.48Q67.02-9.38 65.85-7.76 64.68-6.13 62.17-5.76L62.17-5.76 62.17-3.62Q62.17-1.32 62.48-0.35 62.78 0.62 63.77 0.91L63.77 0.91Q64.64 1.15 65.25 1.15L65.25 1.15Q65.83 1.15 66.69 0.91L66.69 0.91Q67.47 0.66 67.82 0.02 68.17-0.62 68.34-1.69L68.34-1.69Q68.42-2.18 68.71-2.45 69-2.72 69.37-2.72L69.37-2.72ZM56.28-15.72Q54.23-15.72 53.18-14.87 52.13-14.03 51.88-12.8L51.88-12.8 64.84-12.8Q64.59-14.03 63.55-14.87 62.5-15.72 60.44-15.72L60.44-15.72 56.28-15.72ZM51.84-10.74Q52.09-9.46 53.14-8.6 54.19-7.73 56.28-7.73L56.28-7.73 60.44-7.73Q62.54-7.73 63.59-8.6 64.64-9.46 64.88-10.74L64.88-10.74 51.84-10.74ZM105-1.19Q105.49-1.19 105.76-0.86 106.03-0.53 106.03-0.16L106.03-0.16Q106.03 0.21 105.76 0.53 105.49 0.86 105 0.86L105 0.86 75.04 0.86Q74.55 0.86 74.28 0.53 74.02 0.21 74.02-0.16L74.02-0.16Q74.02-0.53 74.28-0.86 74.55-1.19 75.04-1.19L75.04-1.19 88.99-1.19 88.99-26.95 77.31-26.95Q76.81-26.95 76.55-27.28 76.28-27.61 76.28-27.98L76.28-27.98Q76.28-28.35 76.55-28.68 76.81-29.01 77.31-29.01L77.31-29.01 102.86-29.01Q103.35-29.01 103.62-28.68 103.89-28.35 103.89-27.98L103.89-27.98Q103.89-27.61 103.62-27.28 103.35-26.95 102.86-26.95L102.86-26.95 91.05-26.95 91.05-1.19 105-1.19ZM140.67-24.36L130.01-24.36 130.01-16.79 138.9-16.79Q139.39-16.79 139.66-16.46 139.93-16.13 139.93-15.76L139.93-15.76Q139.93-15.39 139.66-15.06 139.39-14.73 138.9-14.73L138.9-14.73 130.01-14.73 130.01-7.12 139.68-7.12Q140.17-7.12 140.44-6.79 140.71-6.46 140.71-6.09L140.71-6.09Q140.71-5.72 140.44-5.39 140.17-5.06 139.68-5.06L139.68-5.06 130.01-5.06 130.01 3.21Q130.01 3.7 129.68 3.97 129.35 4.24 128.98 4.24L128.98 4.24Q128.61 4.24 128.28 3.97 127.95 3.7 127.95 3.21L127.95 3.21 127.95-24.36 125.61-24.36Q123.68-20 120.92-16.05L120.92-16.05Q120.55-15.59 120.05-15.59L120.05-15.59Q119.73-15.59 119.44-15.8L119.44-15.8Q119.07-16.09 119.07-16.66L119.07-16.66Q119.07-16.99 119.31-17.36L119.31-17.36Q123.72-23.57 126.31-31.8L126.31-31.8Q126.51-32.42 127.17-32.42L127.17-32.42Q127.34-32.42 127.58-32.34L127.58-32.34Q127.83-32.26 128.02-31.99 128.2-31.72 128.2-31.39L128.2-31.39Q128.2-31.15 128.16-31.02L128.16-31.02Q127.25-28.27 126.51-26.41L126.51-26.41 140.67-26.41Q141.16-26.41 141.43-26.08 141.7-25.76 141.7-25.39L141.7-25.39Q141.7-25.01 141.43-24.69 141.16-24.36 140.67-24.36L140.67-24.36ZM119.52-30.4Q118.24-26.29 116.43-22.22L116.43-22.22Q116.52-21.97 116.52-21.76L116.52-21.76 116.52 2.96Q116.52 3.46 116.19 3.72 115.86 3.99 115.49 3.99L115.49 3.99Q115.12 3.99 114.79 3.72 114.46 3.46 114.46 2.96L114.46 2.96 114.46-18.31Q112.98-15.59 111.33-13.25L111.33-13.25Q110.96-12.8 110.47-12.8L110.47-12.8Q110.14-12.8 109.85-13L109.85-13Q109.48-13.29 109.48-13.87L109.48-13.87Q109.48-14.19 109.73-14.56L109.73-14.56Q114.75-21.76 117.67-31.19L117.67-31.19Q117.87-31.8 118.53-31.8L118.53-31.8Q118.7-31.8 118.94-31.72L118.94-31.72Q119.19-31.64 119.38-31.37 119.56-31.1 119.56-30.77L119.56-30.77Q119.56-30.53 119.52-30.4L119.52-30.4ZM147.99-21.39Q147.62-21.39 147.29-21.66 146.96-21.93 146.96-22.42L146.96-22.42 146.96-23.29Q146.96-25.43 148.38-26.72 149.8-28.02 152.72-28.02L152.72-28.02 160.66-28.02 160.66-32.01Q160.66-32.5 160.99-32.77 161.32-33.04 161.69-33.04L161.69-33.04Q162.06-33.04 162.39-32.77 162.72-32.5 162.72-32.01L162.72-32.01 162.72-28.02 170.87-28.02Q173.75-28.02 175.19-26.62 176.63-25.22 176.63-23.29L176.63-23.29 176.63-22.42Q176.63-21.93 176.3-21.66 175.97-21.39 175.6-21.39L175.6-21.39Q175.23-21.39 174.9-21.66 174.57-21.93 174.57-22.42L174.57-22.42 174.57-22.88Q174.57-24.15 173.64-25.06 172.72-25.96 170.45-25.96L170.45-25.96 153.13-25.96Q150.87-25.96 149.95-25.06 149.02-24.15 149.02-22.88L149.02-22.88 149.02-22.42Q149.02-21.93 148.69-21.66 148.36-21.39 147.99-21.39L147.99-21.39ZM150.87-13.21Q155.15-17.24 157.17-19.25L157.17-19.25 150.38-19.25Q149.88-19.25 149.62-19.58 149.35-19.91 149.35-20.28L149.35-20.28Q149.35-20.65 149.62-20.98 149.88-21.31 150.38-21.31L150.38-21.31 173.25-21.31Q173.75-21.31 174.01-20.98 174.28-20.65 174.28-20.28L174.28-20.28Q174.28-19.91 174.01-19.58 173.75-19.25 173.25-19.25L173.25-19.25 160.09-19.25Q156.75-15.92 153.96-13.29L153.96-13.29 169.51-13.74 166.67-16.54Q166.34-16.87 166.34-17.32L166.34-17.32Q166.34-17.73 166.63-18.02L166.63-18.02Q166.96-18.35 167.41-18.35L167.41-18.35Q167.78-18.35 168.07-18.06L168.07-18.06 172.55-13.62Q172.55-13.62 172.76-13.41L172.76-13.41 174.49-11.68Q174.82-11.36 174.82-10.94L174.82-10.94Q174.82-10.53 174.53-10.24L174.53-10.24Q174.2-9.92 173.75-9.92L173.75-9.92Q173.38-9.92 173.09-10.2L173.09-10.2 171.52-11.77 150.58-11.15Q150.09-11.15 149.82-11.48 149.55-11.81 149.55-12.18L149.55-12.18Q149.55-12.55 149.82-12.88 150.09-13.21 150.58-13.21L150.58-13.21 150.87-13.21ZM176.67 0.33Q177.16 0.33 177.43 0.66 177.7 0.99 177.7 1.36L177.7 1.36Q177.7 1.73 177.43 2.06 177.16 2.39 176.67 2.39L176.67 2.39 146.92 2.39Q146.43 2.39 146.16 2.06 145.89 1.73 145.89 1.36L145.89 1.36Q145.89 0.99 146.16 0.66 146.43 0.33 146.92 0.33L146.92 0.33 160.83 0.33 160.83-4.69 150.21-4.69Q149.72-4.69 149.45-5.02 149.18-5.35 149.18-5.72L149.18-5.72Q149.18-6.09 149.45-6.42 149.72-6.75 150.21-6.75L150.21-6.75 160.83-6.75 160.83-9.26Q160.83-9.75 161.16-10.02 161.49-10.29 161.86-10.29L161.86-10.29Q162.23-10.29 162.56-10.02 162.88-9.75 162.88-9.26L162.88-9.26 162.88-6.75 173.38-6.75Q173.87-6.75 174.14-6.42 174.4-6.09 174.4-5.72L174.4-5.72Q174.4-5.35 174.14-5.02 173.87-4.69 173.38-4.69L173.38-4.69 162.88-4.69 162.88 0.33 176.67 0.33Z" transform="translate(-1.850000023841858, 33.4900016784668)"></path></g> <!----> <!----> <!----> <!----> <!----> <!----> <!----></g></g> <g data-gra="path-slogan" fill-rule="" class="tp-slogan iconsvg-slogansvg" fill="#333" transform="translate(31.7449951171875,43.730003356933594)"><!----> <!----> <g transform="scale(1, 1)"><g transform="scale(1)"><path d="M4.55-7.64L2.20-7.64L2.20-4.64L4.50-4.64Q6.28-4.64 6.28-6.19L6.28-6.19Q6.28-7.59 4.55-7.64L4.55-7.64ZM4.92-3.61L2.20-3.61L2.20 0L1.03 0L1.03-8.58L4.92-8.58Q7.36-8.48 7.45-6.19L7.45-6.19Q7.31-3.70 4.92-3.61L4.92-3.61ZM15.66-4.27L15.66-4.27Q15.47-7.64 12.66-7.83L12.66-7.83Q9.80-7.69 9.66-4.27L9.66-4.27Q9.80-0.94 12.66-0.80L12.66-0.80Q15.47-0.98 15.66-4.27ZM16.83-4.27L16.83-4.27Q16.55 0 12.66 0.14L12.66 0.14Q8.72 0 8.44-4.27L8.44-4.27Q8.67-8.72 12.66-8.81L12.66-8.81Q16.55-8.67 16.83-4.27ZM22.97-7.13L22.92-7.13L20.95 0L19.73 0L17.48-8.58L18.70-8.58L20.34-1.59L20.39-1.59L22.31-8.58L23.58-8.58L25.50-1.59L25.55-1.59L27.14-8.58L28.41-8.58L26.16 0L24.94 0L22.97-7.13ZM30.80-1.03L35.95-1.03L35.95 0L29.63 0L29.63-8.58L35.86-8.58L35.86-7.59L30.80-7.59L30.80-4.92L35.48-4.92L35.48-3.89L30.80-3.89L30.80-1.03ZM41.58-3.70L38.77-3.70L38.77 0L37.59 0L37.59-8.58L41.58-8.58Q44.44-8.58 44.44-6.28L44.44-6.28Q44.44-4.88 43.22-4.22L43.22-4.22Q44.25-3.94 44.25-2.58L44.25-2.58L44.34-1.03Q44.30-0.38 44.77-0.19L44.77-0.19L44.77 0L43.31 0Q43.17-0.61 43.13-2.16L43.13-2.16Q43.17-3.70 41.58-3.70L41.58-3.70ZM41.67-7.64L38.77-7.64L38.77-4.69L41.48-4.69Q43.22-4.69 43.22-6.19L43.22-6.19Q43.22-7.64 41.67-7.64L41.67-7.64ZM52.64-7.64L50.58-7.64L50.58-4.97L52.64-4.97Q54.47-4.92 54.42-6.38L54.42-6.38Q54.42-7.64 52.64-7.64L52.64-7.64ZM53.11 0L49.41 0L49.41-8.58L53.20-8.58Q55.50-8.48 55.59-6.42L55.59-6.42Q55.59-5.16 54.47-4.64L54.47-4.64Q56.06-4.08 56.06-2.53L56.06-2.53Q55.92-0.09 53.11 0L53.11 0ZM52.83-3.98L50.58-3.98L50.58-0.98L53.06-0.98Q54.84-1.03 54.89-2.53L54.89-2.53Q54.89-3.98 52.83-3.98L52.83-3.98ZM64.31-8.58L61.08-3.47L61.08 0L59.91 0L59.91-3.47L56.67-8.58L58.03-8.58L60.47-4.45L62.95-8.58L64.31-8.58ZM69.52-1.03L74.81-1.03L74.81 0L68.06 0L68.06-0.94L73.31-7.59L68.44-7.59L68.44-8.58L74.81-8.58L74.81-7.59L69.52-1.03ZM77.11-5.06L81.61-5.06L81.61-8.58L82.78-8.58L82.78 0L81.61 0L81.61-3.98L77.11-3.98L77.11 0L75.94 0L75.94-8.58L77.11-8.58L77.11-5.06ZM84.75-8.58L85.92-8.58L85.92 0L84.75 0L84.75-8.58ZM87.19-1.92L87.19-2.77L88.27-2.77L88.27-2.16Q88.27-0.75 89.58-0.75L89.58-0.75Q90.94-0.75 90.94-2.25L90.94-2.25L90.94-8.58L92.11-8.58L92.11-2.30Q92.06 0.09 89.63 0.14L89.63 0.14Q87.33 0.09 87.19-1.92L87.19-1.92ZM94.08-8.58L95.25-8.58L95.25 0L94.08 0L94.08-8.58ZM98.63-8.58L102.94-1.64L102.94-8.58L104.06-8.58L104.06 0L102.75 0L98.39-6.94L98.34-6.94L98.34 0L97.22 0L97.22-8.58L98.63-8.58ZM112.27-3.61L109.64-3.61L109.64-4.59L113.39-4.59L113.39 0L112.64 0L112.36-1.08Q111.38 0.09 109.55 0.14L109.55 0.14Q107.81 0.14 106.88-0.75L106.88-0.75Q105.47-2.06 105.52-4.36L105.52-4.36Q105.84-8.63 109.59-8.81L109.59-8.81Q112.78-8.63 113.25-6L113.25-6L112.13-6Q111.66-7.78 109.55-7.83L109.55-7.83Q106.88-7.64 106.73-4.31L106.73-4.31Q106.73-0.75 109.59-0.75L109.59-0.75Q110.63-0.75 111.38-1.31L111.38-1.31Q112.31-2.06 112.27-3.61L112.27-3.61Z" transform="translate(-1.03125, 8.8125)"></path></g></g></g></g></g><defs v-gra="od"></defs></svg>